<svg width="32" height="32" viewBox="0 0 32 32" fill="none" xmlns="http://www.w3.org/2000/svg">
<g clip-path="url(#clip0_1304_4721)">
<path d="M31.5 16C31.5 7.43959 24.5604 0.5 16 0.5C7.43959 0.5 0.5 7.43959 0.5 16C0.5 24.5604 7.43959 31.5 16 31.5C24.5604 31.5 31.5 24.5604 31.5 16Z" stroke="#FF0159"/>
<path d="M18.8732 10C17.3538 10 16.122 11.2312 16.122 12.75C16.122 12.9795 16.1501 13.2024 16.2031 13.4156C14.55 13.4156 11.95 13.0556 10 10.6111C10 16.7222 12.6 18.4537 13.9 18.5556C12.925 19.4722 11.4058 20.1508 10 20.2784C10.6048 20.801 12.4992 20.9772 13.3708 21C17.8781 21 21.5415 17.3887 21.623 12.9028C22.4875 12.3677 22.898 10.917 23 10.6111C22.5789 11.0321 21.7 11.2222 20.9997 11.005C20.4951 10.3914 19.7299 10 18.8732 10Z" fill="#FF0159"/>
</g>
<defs>
<clipPath id="clip0_1304_4721">
<rect width="32" height="32" fill="white"/>
</clipPath>
</defs>
</svg>
